# xmcd
#
# Track frame offsets: 
#        150
#        15168
#        27195
#        40831
#        54602
#        67134
#        79137
#        105000
#        116773
#        129472
#        141296
#        154248
#        164717
#        182606
#        194252
#
# Disc length: 2845 seconds
#
# Revision: 0
# Processed by: cddbd v1.5.2PL0 Copyright (c) Steve Scherf et al.
# Submitted via: ExactAudioCopy v0.99pb4
#
DISCID=c60b1b0f
DTITLE=Ray Charles - The Legend lives on - CD 2
DYEAR=2008
DGENRE=Blues
TTITLE0=Drown in my own Tears
TTITLE1=Mess around
TTITLE2=A Fool for you
TTITLE3=Baby let me hold your Hand
TTITLE4=Mary Ann
TTITLE5=Leave my Woman alone
TTITLE6=Black Coffee ( instr.)
TTITLE7=Roll with my Baby
TTITLE8=Feelin' Sad
TTITLE9=The Sun's gonna shine again
TTITLE10=Baby won't you please come Home
TTITLE11=Blackjack
TTITLE12=The Ray ( instr.)
TTITLE13=See See Rider
TTITLE14=America the Beautiful ( Live )
EXTD=
EXTT0=
EXTT1=
EXTT2=
EXTT3=
EXTT4=
EXTT5=
EXTT6=
EXTT7=
EXTT8=
EXTT9=
EXTT10=
EXTT11=
EXTT12=
EXTT13=
EXTT14=
PLAYORDER=
